<svg width="12" height="12" viewBox="0 0 12 12" fill="none" xmlns="http://www.w3.org/2000/svg">
<path fill-rule="evenodd" clip-rule="evenodd" d="M6 1.09091C3.28878 1.09091 1.09091 3.28878 1.09091 6C1.09091 8.71122 3.28878 10.9091 6 10.9091C8.71122 10.9091 10.9091 8.71122 10.9091 6C10.9091 3.28878 8.71122 1.09091 6 1.09091ZM0 6C0 2.68629 2.68629 0 6 0C9.31371 0 12 2.68629 12 6C12 9.31371 9.31371 12 6 12C2.68629 12 0 9.31371 0 6Z" fill="white" fill-opacity="0.6"/>
<path fill-rule="evenodd" clip-rule="evenodd" d="M6.15905 3.4325C6.37206 3.21948 6.71743 3.21948 6.93044 3.4325L9.11226 5.61431C9.32527 5.82733 9.32527 6.17269 9.11226 6.3857L6.93044 8.56752C6.71743 8.78053 6.37206 8.78053 6.15905 8.56752C5.94604 8.35451 5.94604 8.00914 6.15905 7.79613L7.40972 6.54546H3.27202C2.97077 6.54546 2.72656 6.30125 2.72656 6.00001C2.72656 5.69876 2.97077 5.45455 3.27202 5.45455H7.40972L6.15905 4.20388C5.94604 3.99087 5.94604 3.64551 6.15905 3.4325Z" fill="white" fill-opacity="0.6"/>
</svg>
